<svg xmlns="http://www.w3.org/2000/svg" xmlns:svg="http://www.w3.org/2000/svg" version="1.0" width="800pt" height="800pt" viewBox="0 0 800 800">
  <defs>
    <style>
        #wrap path{
            --delay: 0s;
            fill: rgba(0, 0, 0, 0);
            animation: blink .3s ease var(--delay) forwards;
        }
        #wrap path:nth-child(2) {
            --delay: .1s;
        }
        #wrap path:nth-child(3) {
            --delay: .2s;
        }
        #wrap path:nth-child(4) {
            --delay: .3s;
        }
        #wrap path:nth-child(5) {
            --delay: .4s;
        }
        #wrap path:nth-child(6) {
            --delay: .5s;
        }
        #wrap path:nth-child(7) {
            --delay: .6s;
        }
        #wrap path:nth-child(8) {
            --delay: .7s;
        }
        @keyframes blink {
            0%,1% {
                fill: rgba(0, 0, 0, 0);
            }
            24%,26% {
                fill: rgba(0, 0, 0, 1);
            }
            49%,51% {
                fill: rgba(0, 0, 0, 0);
            }
            75%,100% {
                fill: rgba(0, 0, 0, 1)
            }
        }
    
    </style>
</defs>
  
  <g transform="matrix(0.1,0,0,-0.1,-24.999997,1175.248)" id="wrap">
    <path d="m 3273.0832,10939.991 c -165.7415,-12.327 -312.2301,-54.173 -453.7259,-188.459 -336.1081,-318.86 -313.1324,-466.745 -1537.9366,-4054.0522 0.204,-5.4126 -31.7253,-49.8614 4.8178,-163.7487 36.3186,-42.632 -57.4229,-39.7132 362.5813,-42.6829 285.0721,0 322.227,-0.4526 344.0526,17.2026 591.927,1635.055 1056.4259,3262.6785 1104.6547,3423.3237 65.3344,224.9025 102.6872,278.0415 222.9961,284.1065 154.4065,-35.589 181.8625,-186.337 489.6844,-1082.8001 h 314.5624 313.3337 c -229.7248,676.5869 -304.5741,998.2601 -589.8045,1531.0341 -171.1956,202.947 -381.5233,277.013 -575.216,276.076 z"/>
    <path d="M 5924.9026,9071.443 H 4585.5548 c -1276.852,0 -1326.0445,12.5084 -1382.5833,-16.7686 -88.0202,-186.624 -193.0613,-551.3966 -202.5164,-591.4674 17.5117,-57.5109 36.3411,-57.2876 36.8629,-71.268 96.4483,-49.8793 41.3701,-33.1766 1459.7662,-33.1766 h 1182.0665 c -187.9494,-565.0101 -143.8809,-453.1461 -414.7506,-1143.7634 -63.5369,-145.8463 -106.267,14.1102 -141.5426,95.867 -389.9576,952.7827 -21.9951,44.4106 -404.6851,998.7461 -635.8928,1.5871 -28.0217,-2.3517 -673.2717,0 633.9641,-1626.2245 472.4694,-1228.5368 713.9092,-1604.7599 169.9145,-185.5642 181.7977,-161.1996 281.9735,-206.2199 126.9917,-23.8343 249.0449,-16.9909 322.7704,-16.9909 138.5384,10.4775 257.1817,92.2928 360.0438,193.5738 155.2448,176.1948 411.4046,787.0773 697.0242,1575.4165 91.8867,219.1802 107.7399,373.4588 143.604,315.357 -3.948,-17.9073 8.0442,9.2728 -47.0612,-142.102 -1.052,-59.5369 -34.6631,-59.5879 265.412,-62.6667 170.7976,-1.2288 260.497,1.2287 260.497,9.8301 159.4485,436.2005 226.3317,593.209 189.5185,653.2306 l -280.5204,5.0317 c -285.3772,-0.6441 -220.0895,-4.7109 -278.7073,-137.0317 -91.1849,-221.6206 -63.1114,-133.2256 15.5397,128.2752 289.8311,956.0904 298.5512,990.3951 446.3265,1476.2471 112.9771,406.529 3.8506,15.726 116.7322,417.778 -726.6745,2.352 -21.164,-1.175 -737.2557,0 -575.9293,-1824.3258 -24.9397,-71.175 -589.8045,-1843.138 z"/>
    <path d="m 1197.8651,6036.4071 c -112.9007,-1.4633 -108.4071,-5.7469 -126.5623,-20.8888 -31.9477,-27.0328 -27.5006,-152.3078 10.2402,-178.0538 29.2984,-15.0147 46.3869,-17.2716 212.1068,-19.0147 l -1.1702,-550.0173 c -1.758,-564.2723 -3.4981,-647.5016 129.3122,-679.3284 148.8931,-19.7306 195.55,-15.6136 351.6597,17.5541 91.7672,149.7494 74.8534,102.0536 84.2574,643.343 4.2129,539.6556 0.9278,560.7383 38.0331,571.9594 64.3652,-0.4099 77.9959,-2.6344 957.2621,5.5575 875.8548,24.8329 989.0943,36.6754 997.6356,89.5234 0.113,104.7174 -10.7041,99.6993 -39.2033,119.3656 -1329.3427,13.3488 -1231.7267,22.2371 -2613.5713,0 z"/>
    <path d="m 3930.626,6036.4071 c -18.4313,-22.1176 -20.8888,-74.9542 -20.8888,-416.5494 0,-207.6603 4.915,-479.2161 0,-600.8634 -10.0233,-187.964 -54.0588,-258.2176 -168.5162,-269.8591 -104.1597,9.8433 -136.3043,166.5388 -138.6737,457.8593 0,335.4513 3.3938,381.2079 -19.6017,408.1243 -49.1876,62.2241 -89.7425,50.9163 -234.7516,52.6606 -150.9619,-2.3406 -153.4773,2.2235 -195.6072,-26.6234 -27.9435,-22.1726 -46.5031,-118.5631 -47.6871,-471.0242 0,-321.935 -3.3353,-373.2491 15.9739,-445.9818 36.4555,-62.6647 41.7564,-62.6311 99.1786,-108.0724 129.8364,-55.6819 138.2613,-41.9721 400.9265,-41.8941 215.6643,-1.9979 169.3908,0.1168 264.1832,18.4313 163.3244,83.5224 154.0219,99.1264 208.8892,227.3205 2.4521,353.7306 0,543.647 0,1007.5828 H 5728.301 c 1445.0211,0 1649.6831,-1.5686 1649.6831,14.4053 38.8491,55.9886 63.6043,87.6317 30.031,173.5949 l -28.2614,20.8888 c -1756.5434,30.1345 -1633.4441,28.9637 -3449.1277,0 z"/>
    <path d="m 1974.4411,5458.8902 c -17.0857,-142.7738 -7.899,-182.3285 -7.899,-260.9691 17.094,-20.4025 -23.8993,-71.6258 179.0087,-131.4007 47.2341,-13.9147 234.6092,-11.9835 314.2503,-13.1207 188.0001,0 262.1345,-0.2341 313.6266,-14.6282 50.272,-31.9991 54.8875,-76.3079 55.0011,-114.3916 -11.3111,-74.1535 -39.3675,-85.858 -58.5119,-119.0727 -52.6625,-22.5861 -63.0182,-18.1389 -128.1425,-18.1389 -141.3073,0 -157.3982,21.7083 -157.3982,132.2965 0,46.6929 -6.1438,81.0982 -17.2027,90.9283 -12.2875,12.2875 -65.1242,17.2026 -207.6602,19.6601 -184.1954,-0.086 -298.0633,33.2065 -303.5036,-173.255 48.9081,-307.4402 151.1389,-281.9711 565.2293,-282.6147 h 282.6147 c 152.1546,57.6233 135.1132,170.2509 135.1635,368.6278 -1.3869,274.9626 7.6001,232.8299 -183.0851,264.4757 -225.9303,5.4385 -294.6309,5.9994 -294.9614,153.3025 -6.4405,135.0766 122.2154,115.1427 202.4534,116.4397 120.677,-8.213 142.4564,-10.473 155.0584,-65.5342 59.0357,-167.5307 125.8809,-121.1925 120.5347,35.1076 0,89.6995 -4.8566,64.9476 -64.0722,130.4831 -131.9971,82.4971 -156.0733,82.4759 -409.0001,90.6937 -338.2806,-7.0618 -384.7331,29.5669 -491.5038,-208.8892 z"/>
    <path d="m 4216.9269,5114.8376 c 0,-384.6017 -10.4155,-386.18 13.7504,-442.3533 0,0 17.0275,-48.9742 43.5913,-64.0716 51.2623,-37.5965 78.9218,-43.545 403.4432,-42.4211 535.5854,5.9128 524.188,-78.9009 522.2227,536.5585 -1.6402,570.8581 6.1439,529.3903 -522.2227,528.3665 h -423.922 c -58.0758,-45.331 -36.6747,-9.6956 -36.8629,-516.079 z m 872.4192,-38.0915 c -6.2182,-290.3553 4.3549,-310.2582 -222.4054,-318.2487 -151.9132,9.8657 -145.8004,53.4018 -146.2224,337.9089 6.1967,238.855 -15.4375,324.8421 136.3923,350.1963 254.1887,-2.3611 232.0486,-86.989 232.2355,-369.8565 z"/>
    <path d="m 5365.8755,5517.9292 c -2.8084,-587.4779 -2.8084,-629.4128 -3.5108,-847.6101 46.4489,-114.8472 117.28,-92.5608 501.0999,-96.1356 308.4186,0 356.3402,18.4313 356.3402,18.4313 52.3982,19.8852 54.0896,29.3225 54.4164,98.0083 -4.8404,26.4121 -11.5358,41.2101 -27.5855,49.5666 -16.4707,15.8813 -21.9378,9.896 -420.0339,11.286 v 142.1852 l -2.3406,136.3339 c 212.5468,0.5353 256.2798,0.6795 419.5327,5.8513 l 27.3484,32.439 -0.4319,62.3516 -29.2571,30.4253 c -45.281,15.0772 -117.0671,4.8992 -414.2674,6.7287 -1.791,158.8758 -2.4915,22.2941 2e-4,268.5725 328.4085,1.8423 367.0941,-8.7326 437.0887,28.6708 15.0806,25.4076 22.5342,25.9822 22.8194,55.2942 -16.1069,102.2042 -96.7089,103.5635 -458.0349,110.5884 -413.6695,-4.3749 -399.4509,7.4736 -463.1838,-112.9874 z"/>
    <path d="m 6514.7071,5114.8376 c 0,-384.6017 -5.7344,-421.2884 14.9205,-475.121 44.9901,-30.3237 91.7192,-55.8461 241.9461,-50.6125 124.0236,38.1528 169.6719,35.4102 173.1992,353.7072 0,188.0002 -0.9363,301.9238 6.4363,301.9238 224.6692,-424.0164 209.4339,-391.3276 341.1259,-614.3802 62.5367,-69.1973 130.8623,-95.07 155.5148,15.7226 0.6223,883.8475 7.311,917.287 -6.5998,953.8277 -68.4648,27.898 -57.7792,27.7558 -111.7586,-3.2763 -14.7451,-15.9739 -16.0908,-88.5883 -16.0908,-317.1375 0,-151.1374 -1.2872,-52.8895 -6.1438,-275.2421 -333.5795,569.6471 -319.1988,605.5355 -395.836,612.6245 1.1702,0.3509 -64.9488,1.7552 -163.2495,1.7552 -99.5735,-5.0769 -167.0206,13.2417 -198.9106,-46.5069 -38.223,-71.6141 -30.474,-238.0078 -34.5537,-457.2845 z"/>
  </g>
</svg>